<svg xmlns="http://www.w3.org/2000/svg" xmlns:xlink="http://www.w3.org/1999/xlink" width="686.89" height="625.716" viewBox="0 0 686.89 625.716"><defs><style>.a{fill:#efefef;}.b{fill:#43425d;}.c{filter:url(#a);}</style><filter id="a" x="0" y="0" width="686.89" height="625.716" filterUnits="userSpaceOnUse"><feOffset dx="10" dy="10" input="SourceAlpha"/><feGaussianBlur stdDeviation="8" result="b"/><feFlood flood-opacity="0.161"/><feComposite operator="in" in2="b"/><feComposite in="SourceGraphic"/></filter></defs><g transform="translate(-627 -311)"><g class="c" transform="matrix(1, 0, 0, 1, 627, 311)"><path class="a" d="M6.067,0H632.823c3.351,0,6.067,3.878,6.067,8.661V569.055c0,4.784-2.716,8.661-6.067,8.661H6.067c-3.351,0-6.067-3.878-6.067-8.661V8.661C0,3.878,2.716,0,6.067,0Z" transform="translate(14 14)"/></g><path class="b" d="M121.81,0h0V154.192c0,1.229.442,5.369-1.5,7.985a6.067,6.067,0,0,1-1.236,1.437,7.057,7.057,0,0,1-1.373.907c-1.091.611-3.572.419-4.242.419H-78.046Z" transform="translate(1158.045 737.776)"/></g></svg>